<svg version="1.1" id="Layer_1" xmlns="http://www.w3.org/2000/svg" xmlns:xlink="http://www.w3.org/1999/xlink" x="0px" y="0px"
	 width="100%" viewBox="0 0 512 512" enable-background="new 0 0 512 512" xml:space="preserve">
<path fill="#FFFFFF" opacity="1.000000" stroke="none" 
	d="
M0.999998,358.000000 
	C1.000000,239.041763 1.000000,120.083542 1.000000,1.062656 
	C171.564957,1.062656 342.129944,1.062656 513.000000,1.062656 
	C513.000000,119.689819 513.000000,238.379898 512.636841,357.331055 
	C511.474915,345.040070 507.952026,333.168365 502.905487,321.757355 
	C493.962555,301.535889 479.493439,285.839478 462.083374,272.595184 
	C446.096832,260.433746 420.763000,259.038177 404.021423,270.920990 
	C399.679535,274.002777 394.797302,276.323303 390.093201,278.571289 
	C389.334473,274.144409 388.853088,270.090973 387.924500,266.142761 
	C380.267975,233.588913 370.109650,201.838120 355.764740,171.598267 
	C346.147217,151.324005 335.045746,131.856247 322.201385,113.347969 
	C306.240906,90.349457 288.994141,68.528587 267.655792,50.290325 
	C256.991516,41.175369 245.837433,32.603878 234.582214,24.219728 
	C226.423279,18.142040 217.804367,22.616463 216.465256,32.969322 
	C208.582535,31.979820 201.069748,31.208904 193.649048,29.911423 
	C181.889267,27.855267 170.134354,28.584106 158.749695,31.221161 
	C147.009171,33.940647 135.141968,37.209278 124.246170,42.226772 
	C107.244881,50.055820 92.403328,61.227432 80.376335,75.978760 
	C71.576622,86.771767 64.326279,98.295700 58.808880,111.108932 
	C51.895306,127.164558 49.695656,144.208710 47.072376,161.196045 
	C46.622772,164.107544 46.956337,167.139954 47.178589,170.442078 
	C58.810326,172.194595 70.213333,173.468842 81.567566,175.085617 
	C97.116959,177.299789 112.566032,176.459290 127.642059,172.565430 
	C158.594666,164.570923 183.814835,147.852951 202.244720,121.414040 
	C205.117722,117.292526 207.992737,113.172417 210.923157,109.463165 
	C210.571014,112.433113 210.405289,115.059120 209.715073,117.539154 
	C204.862167,134.976318 200.572083,152.608917 194.811447,169.745163 
	C186.936081,193.172104 175.884430,215.199280 162.525391,236.061768 
	C152.167587,252.237289 140.410126,267.249817 126.595070,280.821747 
	C120.381981,277.187958 114.524307,273.617218 108.619720,270.125793 
	C91.445122,259.970306 73.805283,259.483521 56.921612,269.854187 
	C48.055569,275.300140 40.157284,282.632355 32.708897,290.008392 
	C18.796221,303.785980 9.733283,320.569885 4.997970,339.596985 
	C3.482627,345.685852 2.322595,351.863159 0.999998,358.000000 
z"/>
<path fill="#FFFFFF" opacity="1.000000" stroke="none" 
	d="
M513.000000,387.000000 
	C513.000000,428.975922 513.000000,470.951874 513.000000,512.963867 
	C342.455200,512.963867 171.910400,512.963867 1.000000,512.963867 
	C1.000000,471.313141 1.000000,429.625244 1.360248,387.667542 
	C2.140772,390.149933 2.504144,392.912140 2.990288,395.652588 
	C7.059886,418.593872 17.971361,438.114197 33.617176,454.981812 
	C45.849998,468.169952 60.846607,477.499023 77.541466,484.232849 
	C93.008682,490.471497 109.252853,492.814728 125.636078,492.701569 
	C135.299194,492.634857 145.103958,490.309113 154.564545,487.898499 
	C184.477600,480.276520 207.248764,462.339172 223.877365,436.830719 
	C234.634033,420.329803 240.720963,402.110413 242.341614,382.050903 
	C243.536209,367.264893 241.404907,353.271515 237.883453,339.287262 
	C234.158020,324.492981 226.767822,311.360321 217.614319,299.255585 
	C207.047653,285.282074 193.051880,277.651917 175.348740,278.124786 
	C169.213287,278.288666 163.116333,279.894928 157.007874,280.497986 
	C165.899750,267.715240 175.096237,255.485016 183.600021,242.790756 
	C197.049347,222.713913 207.110901,200.828918 214.852722,178.044159 
	C220.731247,160.743240 225.516907,143.013657 229.732727,125.224541 
	C232.730896,112.573387 234.311325,99.547272 235.892426,86.611252 
	C237.226959,75.692345 237.652313,64.662308 238.547424,52.788139 
	C240.807571,54.778027 242.924240,56.451889 244.823456,58.343998 
	C258.718170,72.186768 273.695618,85.144135 286.120422,100.204887 
	C298.788574,115.560600 309.373413,132.718948 320.072906,149.593704 
	C333.695740,171.079010 343.544556,194.421646 352.169220,218.337769 
	C359.777466,239.435425 365.489716,260.996185 369.465973,282.965363 
	C361.155853,281.567627 353.290680,280.089752 345.403931,278.737701 
	C327.948792,275.745270 312.770203,281.122040 301.123535,293.744171 
	C287.271912,308.756042 278.492310,326.860992 274.042175,346.968231 
	C270.910400,361.118530 269.972595,375.402496 272.162842,389.659119 
	C275.111115,408.849762 282.303711,426.493896 293.789246,442.265533 
	C305.020599,457.688263 318.864960,470.252747 335.890442,478.889526 
	C355.161133,488.665253 375.470123,493.460449 397.420685,492.226624 
	C414.799225,491.249847 431.090424,487.256042 446.551819,479.706818 
	C462.264343,472.035004 476.001648,461.624847 486.726685,447.687286 
	C496.245636,435.317017 504.437408,422.165192 508.132721,406.702240 
	C509.705078,400.122864 511.374634,393.566711 513.000000,387.000000 
z"/>
<path fill="#FF7058" opacity="1.000000" stroke="none" 
	d="
M513.000000,386.531342 
	C511.374634,393.566711 509.705078,400.122864 508.132721,406.702240 
	C504.437408,422.165192 496.245636,435.317017 486.726685,447.687286 
	C476.001648,461.624847 462.264343,472.035004 446.551819,479.706818 
	C431.090424,487.256042 414.799225,491.249847 397.420685,492.226624 
	C375.470123,493.460449 355.161133,488.665253 335.890442,478.889526 
	C318.864960,470.252747 305.020599,457.688263 293.789246,442.265533 
	C282.303711,426.493896 275.111115,408.849762 272.162842,389.659119 
	C269.972595,375.402496 270.910400,361.118530 274.042175,346.968231 
	C278.492310,326.860992 287.271912,308.756042 301.123535,293.744171 
	C312.770203,281.122040 327.948792,275.745270 345.403931,278.737701 
	C353.290680,280.089752 361.155853,281.567627 369.750824,283.252502 
	C377.450287,283.816956 384.341248,283.732147 390.163269,278.993469 
	C394.797302,276.323303 399.679535,274.002777 404.021423,270.920990 
	C420.763000,259.038177 446.096832,260.433746 462.083374,272.595184 
	C479.493439,285.839478 493.962555,301.535889 502.905487,321.757355 
	C507.952026,333.168365 511.474915,345.040070 512.636841,357.796082 
	C513.000000,367.354218 513.000000,376.708466 513.000000,386.531342 
M338.694489,329.155731 
	C340.652191,323.549011 343.248505,318.072113 344.420685,312.305725 
	C346.264465,303.235596 340.093353,298.309906 331.323273,301.247162 
	C330.070404,301.666779 328.826874,302.204559 327.695099,302.881683 
	C313.191132,311.558807 303.752502,324.185333 299.104553,340.329681 
	C297.660461,345.345612 296.854401,351.014557 301.787933,354.561096 
	C306.847046,358.197906 312.048737,355.537781 316.679688,352.777191 
	C326.051758,347.190277 332.828857,339.075012 338.694489,329.155731 
z"/>
<path fill="#FF7058" opacity="1.000000" stroke="none" 
	d="
M157.001801,280.842407 
	C163.116333,279.894928 169.213287,278.288666 175.348740,278.124786 
	C193.051880,277.651917 207.047653,285.282074 217.614319,299.255585 
	C226.767822,311.360321 234.158020,324.492981 237.883453,339.287262 
	C241.404907,353.271515 243.536209,367.264893 242.341614,382.050903 
	C240.720963,402.110413 234.634033,420.329803 223.877365,436.830719 
	C207.248764,462.339172 184.477600,480.276520 154.564545,487.898499 
	C145.103958,490.309113 135.299194,492.634857 125.636078,492.701569 
	C109.252853,492.814728 93.008682,490.471497 77.541466,484.232849 
	C60.846607,477.499023 45.849998,468.169952 33.617176,454.981812 
	C17.971361,438.114197 7.059886,418.593872 2.990288,395.652588 
	C2.504144,392.912140 2.140772,390.149933 1.360248,387.198914 
	C1.000000,377.645782 1.000000,368.291534 0.999998,358.468658 
	C2.322595,351.863159 3.482627,345.685852 4.997970,339.596985 
	C9.733283,320.569885 18.796221,303.785980 32.708897,290.008392 
	C40.157284,282.632355 48.055569,275.300140 56.921612,269.854187 
	C73.805283,259.483521 91.445122,259.970306 108.619720,270.125793 
	C114.524307,273.617218 120.381981,277.187958 126.914764,281.043152 
	C137.436752,284.417816 147.269852,285.484955 157.001801,280.842407 
M19.202324,335.873444 
	C18.915943,336.827087 18.570721,337.767517 18.352913,338.736572 
	C17.107662,344.277100 15.159007,350.427094 20.569607,354.444061 
	C26.123276,358.567230 31.782698,355.278992 36.676960,352.045197 
	C49.488888,343.580078 58.087864,331.794159 62.500847,317.143066 
	C64.077179,311.909668 65.316231,305.904114 60.063351,301.951965 
	C54.768448,297.968262 49.465935,301.079041 44.831024,303.965607 
	C32.859921,311.421021 24.843920,322.230164 19.202324,335.873444 
z"/>
<path fill="#40596B" opacity="1.000000" stroke="none" 
	d="
M157.007874,280.497986 
	C147.269852,285.484955 137.436752,284.417816 127.248749,281.142395 
	C140.410126,267.249817 152.167587,252.237289 162.525391,236.061768 
	C175.884430,215.199280 186.936081,193.172104 194.811447,169.745163 
	C200.572083,152.608917 204.862167,134.976318 209.715073,117.539154 
	C210.405289,115.059120 210.571014,112.433113 210.975952,109.085358 
	C212.967148,103.400307 215.550308,98.655167 216.848862,93.581253 
	C221.145264,76.793610 225.036179,59.900665 228.917419,43.010151 
	C229.416016,40.840324 228.940598,38.446682 228.528168,36.068195 
	C224.385468,34.970348 220.630981,33.961029 216.876495,32.951714 
	C217.804367,22.616463 226.423279,18.142040 234.582214,24.219728 
	C245.837433,32.603878 256.991516,41.175369 267.655792,50.290325 
	C288.994141,68.528587 306.240906,90.349457 322.201385,113.347969 
	C335.045746,131.856247 346.147217,151.324005 355.764740,171.598267 
	C370.109650,201.838120 380.267975,233.588913 387.924500,266.142761 
	C388.853088,270.090973 389.334473,274.144409 390.093201,278.571289 
	C384.341248,283.732147 377.450287,283.816956 370.186005,283.229431 
	C365.489716,260.996185 359.777466,239.435425 352.169220,218.337769 
	C343.544556,194.421646 333.695740,171.079010 320.072906,149.593704 
	C309.373413,132.718948 298.788574,115.560600 286.120422,100.204887 
	C273.695618,85.144135 258.718170,72.186768 244.823456,58.343998 
	C242.924240,56.451889 240.807571,54.778027 238.547424,52.788139 
	C237.652313,64.662308 237.226959,75.692345 235.892426,86.611252 
	C234.311325,99.547272 232.730896,112.573387 229.732727,125.224541 
	C225.516907,143.013657 220.731247,160.743240 214.852722,178.044159 
	C207.110901,200.828918 197.049347,222.713913 183.600021,242.790756 
	C175.096237,255.485016 165.899750,267.715240 157.007874,280.497986 
z"/>
<path fill="#4CDBC4" opacity="1.000000" stroke="none" 
	d="
M216.465256,32.969322 
	C220.630981,33.961029 224.385468,34.970348 228.381210,36.355377 
	C223.780624,40.470787 219.027878,44.333092 214.081253,47.928654 
	C194.256134,62.338959 174.342377,76.627304 154.514633,91.034019 
	C125.712395,111.961510 96.933914,132.921890 68.195992,153.937546 
	C61.007271,159.194580 54.012196,164.716400 46.928116,170.116516 
	C46.956337,167.139954 46.622772,164.107544 47.072376,161.196045 
	C49.695656,144.208710 51.895306,127.164558 58.808880,111.108932 
	C64.326279,98.295700 71.576622,86.771767 80.376335,75.978760 
	C92.403328,61.227432 107.244881,50.055820 124.246170,42.226772 
	C135.141968,37.209278 147.009171,33.940647 158.749695,31.221161 
	C170.134354,28.584106 181.889267,27.855267 193.649048,29.911423 
	C201.069748,31.208904 208.582535,31.979820 216.465256,32.969322 
z"/>
<path fill="#3DC9AE" opacity="1.000000" stroke="none" 
	d="
M47.178589,170.442078 
	C54.012196,164.716400 61.007271,159.194580 68.195992,153.937546 
	C96.933914,132.921890 125.712395,111.961510 154.514633,91.034019 
	C174.342377,76.627304 194.256134,62.338959 214.081253,47.928654 
	C219.027878,44.333092 223.780624,40.470787 228.769440,36.443905 
	C228.940598,38.446682 229.416016,40.840324 228.917419,43.010151 
	C225.036179,59.900665 221.145264,76.793610 216.848862,93.581253 
	C215.550308,98.655167 212.967148,103.400307 210.919617,108.673851 
	C207.992737,113.172417 205.117722,117.292526 202.244720,121.414040 
	C183.814835,147.852951 158.594666,164.570923 127.642059,172.565430 
	C112.566032,176.459290 97.116959,177.299789 81.567566,175.085617 
	C70.213333,173.468842 58.810326,172.194595 47.178589,170.442078 
z"/>
<path fill="#FFFDFD" opacity="1.000000" stroke="none" 
	d="
M338.495972,329.464447 
	C332.828857,339.075012 326.051758,347.190277 316.679688,352.777191 
	C312.048737,355.537781 306.847046,358.197906 301.787933,354.561096 
	C296.854401,351.014557 297.660461,345.345612 299.104553,340.329681 
	C303.752502,324.185333 313.191132,311.558807 327.695099,302.881683 
	C328.826874,302.204559 330.070404,301.666779 331.323273,301.247162 
	C340.093353,298.309906 346.264465,303.235596 344.420685,312.305725 
	C343.248505,318.072113 340.652191,323.549011 338.495972,329.464447 
z"/>
<path fill="#FFFDFD" opacity="1.000000" stroke="none" 
	d="
M19.360683,335.513550 
	C24.843920,322.230164 32.859921,311.421021 44.831024,303.965607 
	C49.465935,301.079041 54.768448,297.968262 60.063351,301.951965 
	C65.316231,305.904114 64.077179,311.909668 62.500847,317.143066 
	C58.087864,331.794159 49.488888,343.580078 36.676960,352.045197 
	C31.782698,355.278992 26.123276,358.567230 20.569607,354.444061 
	C15.159007,350.427094 17.107662,344.277100 18.352913,338.736572 
	C18.570721,337.767517 18.915943,336.827087 19.360683,335.513550 
z"/>
</svg>